SplineFontDB: 3.0
FontName: AyannaNarrowTamil-ExtraBold
FullName: AyannaNarrow
FamilyName: AyannaNarrow
OS2FamilyName: "ayanna-tamil tamil"
OS2StyleName: "regular"
Weight: ExtraBold
Copyright: Licensed under the SIL Open Font License 1.1 (see file OFL.txt)
Version: 2.5.0
ItalicAngle: 0
UnderlinePosition: -122
UnderlineWidth: 0
Ascent: 800
Descent: 200
InvalidEm: 0
UFOAscent: 799.805
UFODescent: -200.195
LayerCount: 2
Layer: 0 0 "Back" 1
Layer: 1 0 "Fore" 0
PreferredKerning: 4
FSType: 0
OS2Version: 0
OS2_WeightWidthSlopeOnly: 0
OS2_UseTypoMetrics: 0
CreationTime: 1440916200
ModificationTime: 1447008415
PfmFamily: 16
TTFWeight: 400
TTFWidth: 5
LineGap: 0
VLineGap: 0
Panose: 2 0 6 0 0 0 0 0 0 0
OS2TypoAscent: 800
OS2TypoAOffset: 0
OS2TypoDescent: -200
OS2TypoDOffset: 0
OS2TypoLinegap: 0
OS2WinAscent: 522
OS2WinAOffset: 0
OS2WinDescent: 216
OS2WinDOffset: 0
HheadAscent: 528
HheadAOffset: 0
HheadDescent: -232
HheadDOffset: 0
OS2SubXSize: 841
OS2SubYSize: 780
OS2SubXOff: 0
OS2SubYOff: 240
OS2SupXSize: 841
OS2SupYSize: 780
OS2SupXOff: 0
OS2SupYOff: 601
OS2StrikeYSize: 60
OS2StrikeYPos: 300
OS2CapHeight: 0
OS2XHeight: 0
OS2Vendor: 'ACE '
OS2CodePages: 00000001.00000000
OS2UnicodeRanges: 80108003.00002042.00000000.00000000
Lookup: 4 0 0 "akhnAkhandlookup0" { "akhnAkhandlookup0 subtable"  } ['akhn' ('tml2' <'dflt' > 'taml' <'dflt' > ) ]
Lookup: 4 0 0 "abvsAboveBaseSubstitutionslooku" { "abvsAboveBaseSubstitutionslooku subtable"  } ['abvs' ('tml2' <'dflt' > 'taml' <'dflt' > ) ]
Lookup: 1 0 0 "SingleSubstitutionlookup17" { "SingleSubstitutionlookup17 subtable"  } []
Lookup: 6 0 0 "sub_chain_abvstaml_0" { "sub_chain_abvstaml_0 subtable"  } ['abvs' ('tml2' <'dflt' > 'taml' <'dflt' > ) ]
Lookup: 4 0 0 "pstsPostBaseSubstitutionslookup" { "pstsPostBaseSubstitutionslookup subtable"  } ['psts' ('tml2' <'dflt' > 'taml' <'dflt' > ) ]
Lookup: 4 0 0 "sub_ligature_pststaml_0" { "sub_ligature_pststaml_0 subtable"  } ['psts' ('tml2' <'dflt' > 'taml' <'dflt' > ) ]

StartChar: tml_E
Encoding: 9 2958 0
GlifName: tml_E_
Width: 659
VWidth: 2
GlyphClass: 2
Flags: HMW
AnchorPoint: "tml_virama" 422 2 basechar 0
LayerCount: 2
Back
SplineSet
40 246 m 256
 40 442.36858006 130.280701754 559.051359517 288 560 c 256
 287 462 l 260
 188.234375 462 140 370.035714286 140 256 c 256
 140 159 158 75 206 75 c 256
 252 75 261 139 261 178 c 256
 261 239 234 272 208 272 c 256
 168 272 138 222 150 148 c 257
 64 217 l 257
 86 267 116 373 213 373 c 256
 282 373 362 316 362 175 c 256
 362 54 304 -23 206 -23 c 256
 101 -23 40 91 40 246 c 256
279 462 m 257
 281 560 l 257
 634 560 l 257
 634 462 l 257
 531 462 l 257
 531 1 l 257
 424 1 l 257
 424 462 l 257
 279 462 l 257
EndSplineSet
Fore
SplineSet
40 245 m 256
 40 441.753846154 133 560 289 560 c 256
 287 462 l 256
 188.360544218 462 142 369.894495413 142 255 c 256
 142 158 159 74 207 74 c 256
 253 74 262 139 262 178 c 256
 262 245.559139785 234 281 208 281 c 256
 165.142857143 281 145.142857143 235.032258065 148 167 c 257
 92 196 l 257
 92 269.238095238 134.685637584 362 219 362 c 256
 291.721854305 362 358 296.688311688 358 174 c 256
 358 53 301.25477707 -24 207 -24 c 256
 102 -24 40 90 40 245 c 256
279 462 m 257
 287 560 l 257
 634 560 l 257
 634 462 l 257
 531 462 l 257
 531 1 l 257
 424 1 l 257
 424 462 l 257
 279 462 l 257
EndSplineSet
EndChar

StartChar: tml_Ee
Encoding: 10 2959 1
GlifName: tml_E_e
Width: 645
VWidth: 7
GlyphClass: 2
Flags: HMW
AnchorPoint: "tml_virama" 306 8 basechar 0
LayerCount: 2
Back
Fore
SplineSet
182 -162 m 261
 410 52 l 261
 518 2 l 261
 257 -239 l 261
 182 -162 l 261
EndSplineSet
Refer: 0 2958 N 1 0 0 1 -14 0 2
PickledDataWithLists: "(dp1
S'com.fontlab.hintData'
p2
(dp3
S'vhints'
p4
(lp5
(dp6
S'position'
p7
I-41
sS'width'
p8
I37
sa(dp9
g7
I208
sg8
I37
sa(dp10
g7
I457
sg8
I36
sasS'hhints'
p11
(lp12
(dp13
g7
I-18
sg8
I36
sa(dp14
g7
I0
sg8
I21
sa(dp15
g7
I232
sg8
I36
sa(dp16
g7
I485
sg8
I35
sass."
EndChar

StartChar: tml_Ii
Encoding: 6 2952 2
GlifName: tml_I_i
Width: 631
VWidth: 1
GlyphClass: 2
Flags: HMW
LayerCount: 2
Back
Fore
SplineSet
46 1 m 257
 46 566 l 257
 606 566 l 257
 606 468 l 257
 153 468 l 257
 153 1 l 257
 46 1 l 257
181 285 m 260
 181 255 207 227 239 227 c 260
 269 227 297 255 297 285 c 260
 297 315 269 344 239 344 c 260
 207 344 181 315 181 285 c 260
327 1 m 257
 327 500 l 257
 434 500 l 257
 434 1 l 257
 327 1 l 257
469 285 m 256
 469 255 497 227 527 227 c 256
 559 227 585 255 585 285 c 256
 585 315 559 344 527 344 c 256
 497 344 469 315 469 285 c 256
EndSplineSet
PickledDataWithLists: "(dp1
S'com.fontlab.hintData'
p2
(dp3
S'vhints'
p4
(lp5
(dp6
S'position'
p7
I108
sS'width'
p8
I36
sa(dp9
g7
I413
sg8
I36
sasS'hhints'
p10
(lp11
(dp12
g7
I0
sg8
I21
sa(dp13
g7
I485
sg8
I35
sass."
EndChar

StartChar: tml_Lla
Encoding: 31 2995 3
GlifName: tml_L_la
Width: 885
VWidth: 1
GlyphClass: 2
Flags: HMW
AnchorPoint: "Anchor1" 503 0 basechar 0
AnchorPoint: "Anchor0" 482 0 basechar 0
LayerCount: 2
Back
SplineSet
40 245 m 260
 40 448 133 570 289 570 c 260
 426.41025641 570 523.468779118 451.685557033 522 279 c 260
 521.006693222 162.216113157 492.915592521 101.290429669 474 59 c 261
 389 84 l 261
 406.419354839 123.340659341 419 173.5 419 263 c 260
 419 389 367.215384615 473 287 473 c 260
 188.360544218 473 142 376 142 255 c 260
 142 158 159 74 207 74 c 260
 253 74 262 139 262 178 c 260
 262 245.559139785 234 281 208 281 c 260
 165.142857143 281 145.142857143 235.032258065 148 167 c 261
 92 196 l 261
 92 269.238095238 134.685637584 362 219 362 c 260
 291.721854305 362 358 296.688311688 358 174 c 260
 358 53 301.25477707 -24 207 -24 c 260
 102 -24 40 90 40 245 c 260
EndSplineSet
Fore
SplineSet
40 245 m 256
 40 449.873846154 129.265060241 573 279 573 c 260
 409.333333334 573 500 435.583606557 500 235 c 256
 419 257 l 256
 419 388.4 364.076923077 476 279 476 c 260
 185.802721089 476 142 377.665137615 142 255 c 256
 142 158 159 74 207 74 c 256
 253 74 262 139 262 178 c 256
 262 245.559139785 234 281 208 281 c 256
 165.142857143 281 145.142857143 235.032258065 148 167 c 257
 89 196 l 257
 89 259.238095238 132.261744967 362 217 362 c 256
 291.814569537 362 360 296.688311688 360 174 c 256
 360 53 302.503184713 -24 207 -24 c 256
 102 -24 40 90 40 245 c 256
419 1 m 257
 419 560 l 257
 858 560 l 257
 858 462 l 257
 755 462 l 257
 755 1 l 257
 648 1 l 257
 648 462 l 257
 527 462 l 257
 527 1 l 257
 419 1 l 257
EndSplineSet
PickledDataWithLists: "(dp1
S'com.fontlab.hintData'
p2
(dp3
S'vhints'
p4
(lp5
(dp6
S'position'
p7
I23
sS'width'
p8
I37
sa(dp9
g7
I272
sg8
I37
sa(dp10
g7
I424
sg8
I35
sa(dp11
g7
I698
sg8
I36
sasS'hhints'
p12
(lp13
(dp14
g7
I-17
sg8
I36
sa(dp15
g7
I0
sg8
I21
sa(dp16
g7
I233
sg8
I36
sa(dp17
g7
I485
sg8
I35
sa(dp18
g7
I499
sg8
I36
sass."
EndChar

StartChar: tml_Day
Encoding: 65 3059 4
GlifName: tml_D_ay
Width: 621
VWidth: 1
GlyphClass: 2
Flags: HMW
AnchorPoint: "tml_virama" 408 2 basechar 0
LayerCount: 2
Back
SplineSet
25 246 m 260
 25 453 118 576 274 577 c 260
 412 578 509 449 509 265 c 260
 509 119 464 60 464 60 c 261
 374 82 l 261
 391 122 404 172 404 263 c 260
 404 393 353 480 274 480 c 260
 174 480 127 380 127 256 c 260
 127 159 144 75 192 75 c 260
 238 75 247 139 247 178 c 260
 247 239 218 272 192 272 c 260
 153 272 125 222 137 148 c 261
 50 217 l 261
 72 267 102 373 198 373 c 260
 267 373 349 316 349 175 c 260
 349 54 290 -23 192 -23 c 260
 87 -23 25 91 25 246 c 260
374 82 m 261
 482 99 l 261
 597 99 l 261
 597 1 l 261
 375 1 l 261
 374 82 l 261
EndSplineSet
Fore
SplineSet
25 245 m 256
 25 448 118 570 274 570 c 256
 411.41025641 570 508.468779118 451.685557033 507 279 c 256
 506.006693222 162.216113157 477.915592521 101.290429669 459 59 c 257
 374 84 l 257
 391.419354839 123.340659341 404 173.5 404 263 c 256
 404 389 352.215384615 473 272 473 c 256
 173.360544218 473 127 376 127 255 c 256
 127 158 144 74 192 74 c 256
 238 74 247 139 247 178 c 256
 247 245.559139785 219 281 193 281 c 256
 150.142857143 281 130.142857143 235.032258065 133 167 c 257
 77 196 l 257
 77 269.238095238 119.685637584 362 204 362 c 256
 276.721854305 362 343 296.688311688 343 174 c 256
 343 53 286.25477707 -24 192 -24 c 256
 87 -24 25 90 25 245 c 256
374 84 m 257
 474 99 l 261
 597 99 l 257
 597 1 l 257
 375 1 l 257
 374 84 l 257
EndSplineSet
EndChar

StartChar: tml_Pa
Encoding: 25 2986 5
GlifName: tml_P_a
Width: 510
VWidth: 1
GlyphClass: 2
Flags: HMW
AnchorPoint: "Anchor4" 730 0 basechar 0
AnchorPoint: "Anchor1" 410 0 basechar 0
AnchorPoint: "Anchor0" 241 0 basechar 0
LayerCount: 2
Back
Fore
SplineSet
50 1 m 257
 50 560 l 257
 157 560 l 257
 157 99 l 257
 352 99 l 257
 352 560 l 257
 460 560 l 257
 460 1 l 257
 50 1 l 257
EndSplineSet
PickledDataWithLists: "(dp1
S'com.fontlab.hintData'
p2
(dp3
S'vhints'
p4
(lp5
(dp6
S'position'
p7
I50
sS'width'
p8
I36
sa(dp9
g7
I435
sg8
I36
sasS'hhints'
p10
(lp11
(dp12
g7
I0
sg8
I35
sass."
EndChar

StartChar: tml_Ra
Encoding: 28 2992 6
GlifName: tml_R_a
Width: 528
VWidth: 7
GlyphClass: 2
Flags: HMW
AnchorPoint: "Anchor1" 87 -6 basechar 0
AnchorPoint: "Anchor0" 228 0 basechar 0
LayerCount: 2
Back
Fore
SplineSet
49 0 m 257
 49 560 l 257
 518 560 l 261
 518 462 l 261
 415 462 l 261
 415 0 l 261
 379 0 343 0 307 0 c 261
 307 462 l 261
 156 462 l 257
 156 0 l 257
 49 0 l 257
87 -174 m 261
 308 33 l 261
 415 0 l 261
 153 -241 l 261
 87 -174 l 261
EndSplineSet
PickledDataWithLists: "(dp1
S'com.fontlab.hintData'
p2
(dp3
S'vhints'
p4
(lp5
(dp6
S'position'
p7
I7
sS'width'
p8
I36
sa(dp9
g7
I313
sg8
I36
sasS'hhints'
p10
(lp11
(dp12
g7
I0
sg8
I21
sa(dp13
g7
I485
sg8
I35
sass."
Substitution2: "SingleSubstitutionlookup23 subtable" tml_MatraAa
EndChar

StartChar: tml_Tta
Encoding: 20 2975 7
GlifName: tml_T_ta
Width: 657
VWidth: 1
GlyphClass: 2
Flags: HMW
AnchorPoint: "Anchor0" 338 0 basechar 0
LayerCount: 2
Back
Fore
SplineSet
50 1 m 257
 50 560 l 257
 157 560 l 257
 157 99 l 257
 647 99 l 261
 647 1 l 261
 50 1 l 257
EndSplineSet
PickledDataWithLists: "(dp1
S'com.fontlab.hintData'
p2
(dp3
S'vhints'
p4
(lp5
(dp6
S'position'
p7
I60
sS'width'
p8
I36
sasS'hhints'
p9
(lp10
(dp11
g7
I0
sg8
I35
sass."
EndChar

StartChar: tml_Va
Encoding: 33 2997 8
GlifName: tml_V_a
Width: 760
VWidth: 1
GlyphClass: 2
Flags: HMW
AnchorPoint: "Anchor4" 966 0 basechar 0
AnchorPoint: "Anchor1" 625 0 basechar 0
AnchorPoint: "Anchor0" 413 0 basechar 0
LayerCount: 2
Back
Fore
SplineSet
40 245 m 260
 40 448 133 570 289 570 c 260
 426.41025641 570 523.468779118 451.685557033 522 279 c 260
 521.006693222 162.216113157 492.915592521 101.290429669 474 59 c 261
 389 84 l 261
 406.419354839 123.340659341 419 173.5 419 263 c 260
 419 389 367.215384615 473 287 473 c 260
 188.360544218 473 142 376 142 255 c 260
 142 158 159 74 207 74 c 260
 253 74 262 139 262 178 c 260
 262 245.559139785 234 281 208 281 c 260
 165.142857143 281 145.142857143 235.032258065 148 167 c 261
 92 196 l 261
 92 269.238095238 134.685637584 362 219 362 c 260
 291.721854305 362 358 296.688311688 358 174 c 260
 358 53 301.25477707 -24 207 -24 c 260
 102 -24 40 90 40 245 c 260
389 84 m 257
 488 101 l 257
 603 101 l 257
 603 559 l 257
 710 559 l 257
 710 1 l 257
 389 1 l 257
 389 84 l 257
EndSplineSet
EndChar

StartChar: tml_MatraAa
Encoding: 38 3006 9
GlifName: tml_M_atraA_a
Width: 560
VWidth: 1
GlyphClass: 2
Flags: HMW
AnchorPoint: "Anchor1" 122 0 basechar 0
AnchorPoint: "Anchor0" 273 0 basechar 0
LayerCount: 2
Back
Fore
SplineSet
71 1 m 257
 71 560 l 257
 550 560 l 257
 550 462 l 257
 447 462 l 257
 447 1 l 257
 339 1 l 257
 339 462 l 257
 178 462 l 257
 178 1 l 257
 71 1 l 257
EndSplineSet
PickledDataWithLists: "(dp1
S'com.fontlab.hintData'
p2
(dp3
S'vhints'
p4
(lp5
(dp6
S'position'
p7
I108
sS'width'
p8
I36
sa(dp9
g7
I413
sg8
I36
sasS'hhints'
p10
(lp11
(dp12
g7
I0
sg8
I21
sa(dp13
g7
I485
sg8
I35
sass."
EndChar

StartChar: tml_Seven
Encoding: 59 3053 10
GlifName: tml_S_even
Width: 597
VWidth: 2
GlyphClass: 2
Flags: MW
LayerCount: 2
Back
Fore
SplineSet
27 246 m 256
 27 443 137 559 326 560 c 256
 326 462 l 256
 184 462 129 370 129 256 c 256
 129 159 146 75 194 75 c 256
 240 75 248 140 248 179 c 256
 248 240 221 272 195 272 c 256
 155 272 126 222 138 148 c 257
 51 218 l 257
 73 268 103 373 200 373 c 256
 269 373 350 317 350 176 c 256
 350 55 292 -23 194 -23 c 256
 89 -23 27 91 27 246 c 256
312 462 m 257
 322 560 l 257
 535 560 l 257
 535 462 l 257
 535 1 l 257
 428 1 l 257
 428 462 l 257
 312 462 l 257
EndSplineSet
PickledDataWithLists: "(dp1
S'com.fontlab.hintData'
p2
(dp3
S'vhints'
p4
(lp5
(dp6
S'position'
p7
I94
sS'width'
p8
I36
sa(dp9
g7
I399
sg8
I36
sasS'hhints'
p10
(lp11
(dp12
g7
I0
sg8
I21
sa(dp13
g7
I485
sg8
I35
sass."
EndChar

StartChar: tml_A
Encoding: 3 2949 11
GlifName: tml_A_
Width: 855
VWidth: 4
GlyphClass: 2
Flags: HMW
LayerCount: 2
Back
Fore
SplineSet
39 64 m 256
 38 166 100 229 222 229 c 258
 705 229 l 257
 705 131 l 257
 219 131 l 258
 171 131 147 99 147 61 c 256
 147 -7 213 -46 287 -46 c 256
 432 -46 489 50 490 195 c 256
 491 337 454 485 351 484 c 256
 323 484 303 459 303 430 c 256
 303 396 323 369 352 369 c 256
 376 369 399 387 399 427 c 256
 399 468 373 484 352 484 c 257
 447 490 l 257
 460 463 465 435 465 412 c 256
 465 332 422.142857143 276 345 276 c 256
 264 275 204 335 203 424 c 256
 202 520 266 581 352 580 c 256
 534 579 595 377 596 199 c 256
 597 -7 491 -144 287 -144 c 256
 134 -144 40 -49 39 64 c 256
687 -115 m 257
 687 562 l 257
 794 562 l 257
 794 -115 l 257
 687 -115 l 257
EndSplineSet
PickledDataWithLists: "(dp1
S'com.fontlab.hintData'
p2
(dp3
S'vhints'
p4
(lp5
(dp6
S'position'
p7
I155
sS'width'
p8
I37
sa(dp9
g7
I524
sg8
I37
sa(dp10
g7
I670
sg8
I36
sa(dp11
g7
I670
sg8
I8
sasS'hhints'
p12
(lp13
(dp14
g7
I-134
sg8
I36
sa(dp15
g7
I160
sg8
I35
sa(dp16
g7
I298
sg8
I35
sa(dp17
g7
I492
sg8
I37
sass."
EndChar

StartChar: tml_Aa
Encoding: 4 2950 12
GlifName: tml_A_a
Width: 1075
VWidth: 10
GlyphClass: 2
Flags: HMW
LayerCount: 2
Back
Fore
SplineSet
495 -139 m 257
 592 -122 l 257
 609 -234 656 -284 760 -285 c 256
 884 -286 922 -179 922 -75 c 256
 922 6 904 76 843 76 c 256
 783 76 760 44 759 -15 c 257
 682 -51 l 257
 680 80 746 174 843 174 c 256
 974 174 1030 51 1030 -75 c 256
 1030 -255 928 -383 760 -383 c 256
 659 -383 517 -344 495 -139 c 257
EndSplineSet
Refer: 11 2949 N 1 0 0 1 0 0 2
PickledDataWithLists: "(dp1
S'com.fontlab.hintData'
p2
(dp3
S'hhints'
p4
(lp5
(dp6
S'position'
p7
I-134
sS'width'
p8
I36
sa(dp9
g7
I160
sg8
I35
sa(dp10
g7
I298
sg8
I35
sa(dp11
g7
I492
sg8
I37
sass."
EndChar

StartChar: tml_Nnna
Encoding: 24 2985 13
GlifName: tml_N_nna
Width: 939
VWidth: 1
GlyphClass: 2
Flags: MW
AnchorPoint: "Anchor1" 589 0 basechar 0
AnchorPoint: "Anchor0" 534 0 basechar 0
LayerCount: 2
Back
Fore
SplineSet
17 246 m 256
 17 450 132 571 327 572 c 256
 327 474 l 256
 178 474 119 378 119 256 c 256
 119 159 136 75 184 75 c 256
 230 75 239 139 239 178 c 256
 239 239 211 272 185 272 c 256
 145 272 117 222 129 148 c 257
 42 217 l 257
 64 267 94 373 191 373 c 256
 260 373 341 316 341 175 c 256
 341 54 282 -23 184 -23 c 256
 79 -23 17 91 17 246 c 256
327 474 m 257
 327 572 l 257
 349 572 l 257
 349 474 l 257
 327 474 l 257
347 474 m 256
 347 572 l 256
 502 572 666 470 666 214 c 256
 666 53 623 -23 518 -23 c 256
 416 -23 366 55 366 214 c 256
 366 425 448 560 640 561 c 257
 925 561 l 257
 925 463 l 257
 823 463 l 257
 823 1 l 257
 715 1 l 257
 715 463 l 257
 641 463 l 257
 520 463 474 368 474 214 c 256
 474 142 489 75 518 75 c 256
 546 75 558 134 558 213 c 256
 558 414 440 474 347 474 c 256
EndSplineSet
EndChar

StartChar: tml_Nna
Encoding: 21 2979 14
GlifName: tml_N_na
Width: 1274
VWidth: 1
GlyphClass: 2
Flags: MW
AnchorPoint: "Anchor1" 840 0 basechar 0
AnchorPoint: "Anchor0" 691 0 basechar 0
AnchorPoint: "tml_virama" 457 1 basechar 0
LayerCount: 2
Back
Fore
SplineSet
9 246 m 256
 9 450 124 571 320 572 c 256
 320 474 l 256
 179 474 111 378 111 256 c 256
 111 159 128 75 176 75 c 256
 222 75 231 139 231 178 c 256
 231 239 203 272 177 272 c 256
 137 272 109 222 121 148 c 257
 33 217 l 257
 55 267 86 373 183 373 c 256
 252 373 333 316 333 175 c 256
 333 54 274 -23 176 -23 c 256
 71 -23 9 91 9 246 c 256
320 474 m 257
 320 572 l 257
 342 572 l 257
 342 474 l 257
 320 474 l 257
340 474 m 256
 340 572 l 256
 495 572 658 470 658 214 c 256
 658 53 615 -23 510 -23 c 256
 409 -23 360 55 360 214 c 256
 360 431 456 571 682 572 c 257
 678 474 l 257
 526 474 468 375 468 214 c 256
 468 142 482 75 510 75 c 256
 538 75 550 134 550 213 c 256
 550 414 433 474 340 474 c 256
675 474 m 256
 675 572 l 256
 831 572 996 470 996 214 c 256
 996 53 952 -23 848 -23 c 256
 748 -23 699 55 699 214 c 256
 699 425 780 560 970 561 c 257
 1257 561 l 257
 1257 463 l 257
 1154 463 l 257
 1154 1 l 257
 1046 1 l 257
 1046 463 l 257
 971 463 l 257
 852 463 807 368 807 214 c 256
 807 142 821 75 848 75 c 256
 875 75 887 134 887 213 c 256
 887 414 769 474 675 474 c 256
EndSplineSet
PickledDataWithLists: "(dp1
S'com.fontlab.hintData'
p2
(dp3
S'vhints'
p4
(lp5
(dp6
S'position'
p7
I-51
sS'width'
p8
I37
sa(dp9
g7
I198
sg8
I37
sa(dp10
g7
I447
sg8
I36
sasS'hhints'
p11
(lp12
(dp13
g7
I-17
sg8
I36
sa(dp14
g7
I1
sg8
I21
sa(dp15
g7
I233
sg8
I36
sa(dp16
g7
I486
sg8
I35
sass."
EndChar

StartChar: tml_Ma
Encoding: 26 2990 15
GlifName: tml_M_a
Width: 642
VWidth: 1
GlyphClass: 2
Flags: HMW
AnchorPoint: "Anchor1" 303 0 basechar 0
AnchorPoint: "Anchor0" 389 0 basechar 0
AnchorPoint: "tml_virama" 297 0 basechar 0
LayerCount: 2
Back
Fore
SplineSet
46 0 m 257
 46 559 l 257
 153 559 l 257
 153 98 l 257
 372 98 l 257
 388 0 l 261
 46 0 l 257
261 68 m 256
 261 432 l 273
 261 523.565217391 301.424338805 575.270691961 394 576 c 256
 540.818287681 577.15365481 591.240147827 425.844352358 592 299 c 256
 593.106382979 114.308243728 525.617021277 0 384 0 c 261
 365 98 l 257
 484.878787879 96.8895027624 494 184.61878453 494 299 c 256
 494 380.656565657 468.202898551 487 405 487 c 256
 380.739130435 487 369 465.647058824 369 432 c 265
 369 68 l 257
 261 68 l 256
EndSplineSet
PickledDataWithLists: "(dp1
S'com.fontlab.hintData'
p2
(dp3
S'vhints'
p4
(lp5
(dp6
S'position'
p7
I70
sS'width'
p8
I35
sa(dp9
g7
I327
sg8
I35
sa(dp10
g7
I638
sg8
I36
sasS'hhints'
p11
(lp12
(dp13
g7
I0
sg8
I35
sa(dp14
g7
I520
sg8
I35
sass."
EndChar

StartChar: tml_Virama
Encoding: 49 3021 16
GlifName: tml_V_irama
Width: 0
VWidth: -19
GlyphClass: 4
Flags: MW
AnchorPoint: "Anchor0" 0 0 mark 0
AnchorPoint: "tml_virama" 0 -19 mark 0
LayerCount: 2
Back
Fore
SplineSet
-63 680 m 256
 -63 714 -34 743 0 743 c 256
 34 743 63 714 63 680 c 256
 63 646 34 617 0 617 c 256
 -34 617 -63 646 -63 680 c 256
EndSplineSet
PickledDataWithLists: "(dp1
S'com.fontlab.hintData'
p2
(dp3
S'vhints'
p4
(lp5
(dp6
S'position'
p7
I-24
sS'width'
p8
I48
sasS'hhints'
p9
(lp10
(dp11
g7
I658
sg8
I48
sass."
EndChar

StartChar: tml_I
Encoding: 5 2951 17
GlifName: tml_I_
Width: 1005
VWidth: -1
GlyphClass: 2
Flags: HMW
LayerCount: 2
Back
Fore
SplineSet
20 58 m 256
 19 278 266 306 428 306 c 256
 588 306 805 258 805 61 c 256
 805 -27 768 -150 561 -150 c 256
 285 -150 134 155 134 428 c 256
 134 661 271 805 511 804 c 256
 808 802 945 587 945 239 c 256
 945 162 945 -43 945 -102 c 257
 828 -101 l 257
 829 -51 831 168 831 259 c 256
 830 527 711 693 511 692 c 256
 342 692 245 609 245 407 c 256
 245 158 414 -42 559 -42 c 260
 673 -42 688 22 688 60 c 256
 688 119 638 193 423 193 c 256
 227 193 129 157 129 52 c 256
 129 -5 167 -42 248 -42 c 256
 380 -42 567 118 595 313 c 256
 616 442 587 541 476 540 c 256
 448 540 428 516 428 487 c 256
 428 453 448 424 477 424 c 256
 501 424 524 443 524 483 c 256
 524 524 498 540 477 540 c 257
 571 545 l 257
 584 518 588 491 588 468 c 256
 588 388 534.089588378 332 466 331 c 260
 387.284765396 329.770113125 328.971830986 391 328 480 c 256
 327 576 395 635 487 634 c 256
 654 633 718 466 696 297 c 256
 658 23 440 -150 258 -150 c 256
 88 -150 21 -61 20 58 c 256
EndSplineSet
PickledDataWithLists: "(dp1
S'com.fontlab.hintData'
p2
(dp3
S'vhints'
p4
(lp5
(dp6
S'position'
p7
I181
sS'width'
p8
I37
sa(dp9
g7
I550
sg8
I37
sa(dp10
g7
I696
sg8
I36
sa(dp11
g7
I696
sg8
I8
sasS'hhints'
p12
(lp13
(dp14
g7
I-134
sg8
I36
sa(dp15
g7
I160
sg8
I35
sa(dp16
g7
I298
sg8
I35
sa(dp17
g7
I492
sg8
I37
sass."
EndChar

StartChar: tml_La
Encoding: 30 2994 18
GlifName: tml_L_a
Width: 765
VWidth: 1
GlyphClass: 2
Flags: HMW
AnchorPoint: "Anchor2" 712 0 basechar 0
AnchorPoint: "Anchor0" 389 0 basechar 0
LayerCount: 2
Back
SplineSet
23 245 m 260
 23 448 116 570 272 570 c 260
 409.41025641 570 506.468779118 451.685557033 505 279 c 260
 504.006693222 162.216113157 475.915592521 101.290429669 457 59 c 261
 372 84 l 261
 389.419354839 123.340659341 402 173.5 402 263 c 260
 402 389 350.215384615 473 270 473 c 260
 171.360544218 473 125 376 125 255 c 260
 125 158 142 74 190 74 c 260
 236 74 245 139 245 178 c 260
 245 245.559139785 217 281 191 281 c 260
 148.142857143 281 128.142857143 235.032258065 131 167 c 261
 75 196 l 261
 75 269.238095238 117.685637584 362 202 362 c 260
 274.721854305 362 341 296.688311688 341 174 c 260
 341 53 284.25477707 -24 190 -24 c 260
 85 -24 23 90 23 245 c 260
EndSplineSet
Fore
SplineSet
551 -23 m 0
 707 -23 725 151 725 255 c 0
 725 401 672 525 617 584 c 0
 530 530 l 0
 530 530 619 445 619 256 c 0
 619 161 612 75 551 75 c 4
 503 75 485 120.604651163 485 181 c 4
 485 228.684210526 494 289.614035088 494 332 c 0
 494 462.704918033 407.512711864 570.975409836 273 570 c 256
 115.001103155 568.854281681 23 448.247734139 23 245 c 256
 23 90 85 -23 190 -23 c 256
 284.858974359 -23 341 54 341 175 c 256
 341 308.166666667 266.369127517 362 202 362 c 256
 119.226666667 362 74 268 74 197 c 257
 134 148 l 257
 122.210526316 227.967741935 150.701754386 282 190 282 c 256
 216.481481481 282 245 245.489361702 245 178 c 256
 245 139 236 75 190 75 c 256
 142 75 124 159 124 256 c 256
 124 376.66367713 173 473 273 473 c 256
 325.295454545 473 389.113636364 425.083333333 390 335 c 0
 390.285714286 292.818181818 384.285714286 240.090909091 384 190 c 4
 384 78.5336787565 406 -23 551 -23 c 0
EndSplineSet
EndChar

StartChar: tml_Llla
Encoding: 32 2996 19
GlifName: tml_L_lla
Width: 642
VWidth: 7
GlyphClass: 2
Flags: HMW
AnchorPoint: "Anchor1" 284 0 basechar 0
AnchorPoint: "Anchor0" 377 0 basechar 0
LayerCount: 2
Back
Fore
SplineSet
263 33 m 1
 368 32 l 1
 368 -3 l 0
 369 -96 485 -99 562 -99 c 1
 562 -195 l 1
 479 -195 l 1
 383.048582996 -195 337.951417004 -253 242 -253 c 0
 108.049803434 -253 50 -185.950120296 50 -63 c 1
 147 -62 l 1
 147 -131.010869565 187.83244916 -159 244 -159 c 4
 300.95412844 -159 341 -132 341 -132 c 1
 315 -117 266 -84 263 -8 c 0
 263 33 l 1
EndSplineSet
Refer: 15 2990 N 1 0 0 1 0 0 2
EndChar

StartChar: tml_Rra
Encoding: 29 2993 22
GlifName: tml_R_ra
Width: 716
VWidth: 8
GlyphClass: 2
Flags: HMW
AnchorPoint: "Anchor2" 203 0 mark 0
AnchorPoint: "Anchor3" 23 -7 basechar 0
AnchorPoint: "Anchor1" 210 0 basechar 0
AnchorPoint: "Anchor0" 341 0 basechar 0
LayerCount: 2
Back
SplineSet
79 175 m 4
 77.984375 268 133 341 221 341 c 6
 481 341 l 6
 487 242 l 6
 240 244 l 4
 199 244 179 214 179 175 c 4
 179 125 211.890625 99 266 99 c 4
 327.614257812 99 357 142 357 207 c 6
 357 464 l 5
 288 464 l 5
 288 309 l 5
 188 309 l 5
 188 560 l 5
 567 560 l 5
 567 464 l 5
 464 464 l 5
 464 207 l 6
 464 100 422.578125 0.4853515625 261 1 c 4
 129.856445312 1.41796875 80.0751953125 76.5205078125 79 175 c 4
480 341 m 5
 565.556640625 339.987304688 652 292.939453125 652 116 c 4
 652 -64.2177734375 576.293945312 -155.40234375 353 -158 c 4
 284.369140625 -158.633789062 261.690429688 -171.751953125 260 -236 c 5
 150 -236 l 5
 150.887695312 -160.673828125 175.099609375 -61.9755859375 347 -61 c 4
 511.298828125 -59.9892578125 545 -3.5810546875 545 117 c 4
 545 209 514 240 466 242 c 5
 480 341 l 5
EndSplineSet
Fore
SplineSet
161 408 m 258
 161 0 l 256
 53 0 l 257
 53 393 l 257
 161 408 l 258
400 399 m 258
 400 0 l 256
 292 0 l 257
 292 403 l 258
 292 446.375976562 265.733398438 476 228 476 c 256
 188.366210938 476 161 449.934570312 161 399 c 256
 53 393 l 257
 53.994140625 495.64453125 102.314453125 574 231 574 c 256
 331.595703125 574 400 504 400 399 c 258
345 -158 m 0
 193.612640381 -158.772460938 171.247268677 -199.70703125 168 -253 c 1
 54 -253 l 1
 55.3080829821 -169.49609375 81.4604588559 -59.6181640625 343 -59 c 0
 555.333007812 -58.0908203125 560 57.36328125 560 251 c 256
 560 351.46484375 549.34765625 476 462 476 c 256
 426.8828125 476 400 455.759765625 400 398 c 256
 323 351 l 257
 295.87109375 485.568359375 353.87109375 573 468 573 c 256
 635 573 666 385.166992188 666 251 c 256
 666 -0.9736328125 633.327148438 -156.931640625 345 -158 c 0
EndSplineSet
EndChar

StartChar: tml_Sha
Encoding: 34 2998 23
GlifName: tml_S_ha
Width: 807
VWidth: 1051
GlyphClass: 2
Flags: HMW
AnchorPoint: "Anchor1" 681 1 basechar 0
AnchorPoint: "Anchor0" 569 0 basechar 0
AnchorPoint: "tml_virama" 385 1 basechar 0
LayerCount: 2
Back
Fore
SplineSet
50 560 m 1
 157 560 l 1
 157 153 l 2
 157 108 175 83 212 83 c 0
 246 83 270 105 270 153 c 6
 270 560 l 1
 377 560 l 1
 377 153 l 2
 377 41 319 -17 210 -17 c 0
 106 -17 50 46 50 153 c 2
 50 560 l 1
270 462 m 1
 270 560 l 1
 562 560 l 1
 571 462 l 1
 270 462 l 1
445 143 m 256
 445 545 l 256
 557 545 l 257
 557 143 l 256
 557 95.3582089552 581 86 598 86 c 256
 643.245614035 86 665 156 665 284 c 256
 665 427 628.052875083 463 566 462 c 257
 557 560 l 257
 679.155251142 560 766.9543379 521 766 284 c 256
 765.195947268 95.9988646247 705.459627329 -15 595 -15 c 256
 523.75 -15 445 15.0952380952 445 143 c 256
EndSplineSet
EndChar

StartChar: tml_Ya
Encoding: 27 2991 26
GlifName: tml_Y_a
Width: 713
VWidth: 2
GlyphClass: 2
Flags: HMW
AnchorPoint: "Anchor4" 848 0 basechar 0
AnchorPoint: "Anchor1" 544 0 basechar 0
AnchorPoint: "Anchor0" 368 0 basechar 0
LayerCount: 2
Back
Fore
SplineSet
45 142 m 258
 45 560 l 256
 152 560 l 257
 152 167 l 258
 152 106.616411592 180.580645161 83 224 83 c 260
 269 83 306 108.861111111 306 178 c 260
 362 159 l 257
 358.794520548 70.988022322 316.739726027 -17 206 -17 c 256
 101.509933775 -17 45 46.4213483146 45 142 c 258
346 1 m 257
 306 147 l 1
 306 560 l 257
 413 560 l 257
 413 99 l 257
 556 99 l 257
 556 560 l 257
 663 560 l 257
 663 1 l 257
 346 1 l 257
EndSplineSet
PickledDataWithLists: "(dp1
S'com.fontlab.hintData'
p2
(dp3
S'vhints'
p4
(lp5
(dp6
S'position'
p7
I-215
sS'width'
p8
I37
sa(dp9
g7
I34
sg8
I37
sa(dp10
g7
I186
sg8
I35
sa(dp11
g7
I460
sg8
I36
sasS'hhints'
p12
(lp13
(dp14
g7
I-17
sg8
I36
sa(dp15
g7
I0
sg8
I21
sa(dp16
g7
I233
sg8
I36
sa(dp17
g7
I485
sg8
I35
sa(dp18
g7
I499
sg8
I36
sass."
EndChar

StartChar: tml_Nya
Encoding: 19 2974 27
GlifName: tml_N_ya
Width: 998
VWidth: 8
GlyphClass: 2
Flags: HMW
AnchorPoint: "tml_virama" 432 2 basechar 0
AnchorPoint: "Anchor4" 892 0 basechar 0
AnchorPoint: "Anchor1" 879 -7 basechar 0
AnchorPoint: "Anchor0" 951 -7 basechar 0
LayerCount: 2
Back
SplineSet
120 0 m 257
 120 566 l 257
 530 566 l 257
 530 468 l 257
 428 468 l 257
 428 164 l 257
 320 164 l 257
 320 468 l 257
 227 468 l 257
 227 0 l 257
 120 0 l 257
318 98 m 1
 797 97 l 1
 797 -2 l 1
 318 -1 l 1
 318 98 l 1
388 98 m 260
 505 98 533 189 533 235 c 260
 533 284 514 317 479 317 c 260
 437.194335938 317 428 278.8203125 428 254 c 261
 379 285 l 260
 379 358 427 408 491 408 c 260
 578 408 638 352 638 243 c 260
 638 122.311523438 553.640625 20 367 20 c 261
 388 98 l 260
713 567 m 1
 820 567 l 1
 820 -1 l 1
 713 -1 l 1
 713 567 l 1
EndSplineSet
Fore
SplineSet
251 245 m 256
 251 441.753846154 344 560 500 560 c 256
 498 462 l 256
 399.360544218 462 353 369.894495413 353 255 c 256
 353 158 370 74 418 74 c 256
 464 74 473 139 473 178 c 256
 473 245.559139785 445 281 419 281 c 256
 376.142857143 281 356.142857143 235.032258065 359 167 c 257
 303 196 l 257
 303 269.238095238 345.685637584 362 430 362 c 256
 502.721854305 362 569 296.688311688 569 174 c 256
 569 53 512.25477707 -24 418 -24 c 256
 313 -24 251 90 251 245 c 256
490 462 m 257
 498 560 l 257
 835 560 l 257
 835 462 l 257
 732 462 l 257
 732 1 l 257
 625 1 l 257
 625 462 l 257
 490 462 l 257
538 -275 m 260
 232.069552449 -274.107316984 39.9931658089 -84.004852628 39 227 c 260
 38.548828125 368.282191994 89 477.353982301 147 572 c 261
 236 527 l 261
 179.791410639 434 143 350 143 227 c 260
 143 -16.7871287129 298.762330448 -176.106888686 539 -175 c 260
 766.437454741 -173.911469015 847 -53.8579545455 847 134 c 260
 847 213.475609756 824.481481481 267 783 267 c 260
 741.194335938 267 732 228.8203125 732 204 c 261
 683 235 l 260
 683 308 731 358 795 358 c 260
 888.510204082 358 953 281.296969697 953 132 c 260
 953 -116.333076462 834.596081873 -275.86544601 538 -275 c 260
EndSplineSet
PickledDataWithLists: "(dp1
S'com.fontlab.hintData'
p2
(dp3
S'vhints'
p4
(lp5
(dp6
S'position'
p7
I152
sS'width'
p8
I36
sa(dp9
g7
I457
sg8
I36
sasS'hhints'
p10
(lp11
(dp12
g7
I0
sg8
I21
sa(dp13
g7
I485
sg8
I35
sass."
EndChar

StartChar: tml_U
Encoding: 7 2953 28
GlifName: tml_U_
Width: 778
VWidth: 1048
GlyphClass: 2
Flags: HMW
LayerCount: 2
Back
Fore
SplineSet
180 1 m 1
 85.0087890625 -1.052734375 39.4942103348 41.8291382121 39.8349609375 113 c 0
 40.1583606798 180.546875 108.854395752 216.664722382 168 217 c 256
 228 217 l 1
 311.847096489 218.56291644 361 301.957145576 361 376 c 256
 361 447.15234375 313.538574219 522 231 522 c 256
 141.810922476 522 121 424.156612512 121 385 c 256
 121 351.7734375 138.545898438 323 167 323 c 256
 205.47265625 323 213 363.388671875 213 388 c 256
 213 416.083007812 196.41796875 445 165 445 c 256
 138.044921875 445 121.254882812 414.495117188 121 385 c 257
 67 397 l 257
 67 436.493111747 106.375703125 506 175 506 c 256
 216.128242187 506 292 478.095571593 292 385 c 256
 292 300.666256421 245.897460938 247 168 247 c 256
 83.748046875 247 34 312.6875 34 402 c 256
 34 518.998046875 120.100642953 596.393699195 239 597 c 256
 374.397553943 597.690429688 450.474661167 497.533105647 450 372 c 256
 449.494236842 242.330077015 374.426257703 138.199471053 221 135.09375 c 1
 152 134 l 256
 142.278835497 134.03044567 133.037109375 127.796679687 133.037109375 116 c 0
 133.037109375 101.683919271 148.298156604 99 163 99 c 1
 180 1 l 1
768 99 m 5
 768 1 l 5
 171 1 l 1
 157 99 l 1
 768 99 l 5
EndSplineSet
EndChar

StartChar: tml_Ka
Encoding: 15 2965 31
GlifName: tml_K_a
Width: 651
VWidth: 1050
GlyphClass: 2
Flags: HMW
AnchorPoint: "Anchor3" 14 0 basechar 0
AnchorPoint: "Anchor1" 479 0 basechar 0
AnchorPoint: "Anchor0" 309 0 basechar 0
LayerCount: 2
Back
Fore
SplineSet
30 175 m 0
 29 268 84 341 172 341 c 2
 451 341 l 0
 532 341 611 306 611 172 c 0
 611 79 583 2 454 0 c 1
 425 0 l 5
 425 96 l 5
 446 96 l 2
 486 96 503 122.02739726 503 172 c 0
 503 224 479 242 438 242 c 0
 191 244 l 0
 150 244 130 214 130 175 c 0
 130 123.026315789 161 96 212 96 c 0
 277 96 308 140.194444444 308 207 c 2
 308 464 l 1
 240 464 l 1
 240 309 l 1
 139 309 l 1
 139 560 l 1
 518 560 l 1
 518 464 l 1
 415 464 l 1
 415 207 l 2
 415 100 375 1 212 1 c 0
 82 1 31 75 30 175 c 0
EndSplineSet
EndChar

StartChar: tml_Nga
Encoding: 16 2969 32
GlifName: tml_N_ga
Width: 840
VWidth: 1
GlyphClass: 2
Flags: HMW
AnchorPoint: "Anchor4" 893 0 basechar 0
AnchorPoint: "Anchor1" 559 -10 basechar 0
AnchorPoint: "Anchor0" 394 0 basechar 0
LayerCount: 2
Back
Fore
SplineSet
70 0 m 257
 70 560 l 257
 480 560 l 257
 480 462 l 257
 378 462 l 257
 378 164 l 257
 270 164 l 257
 270 462 l 257
 177 462 l 257
 177 0 l 257
 70 0 l 257
268 98 m 1
 747 97 l 1
 747 -2 l 1
 268 -1 l 1
 268 98 l 1
338 98 m 256
 455 98 483 189 483 235 c 256
 483 284 464 317 429 317 c 256
 387.194335938 317 378 278.8203125 378 254 c 257
 329 285 l 256
 329 358 381.285714286 408 451 408 c 256
 532.081632653 408 588 348.787878788 588 263 c 260
 588 133.377027572 495.193323339 23.0807174888 347 22 c 257
 338 98 l 256
663 561 m 1
 770 561 l 1
 770 -1 l 1
 663 -1 l 1
 663 561 l 1
EndSplineSet
EndChar

StartChar: tml_Ca
Encoding: 17 2970 33
GlifName: tml_C_a
Width: 558
VWidth: 1050
GlyphClass: 2
Flags: HMW
AnchorPoint: "Anchor3" 2 0 basechar 0
AnchorPoint: "Anchor1" 114 0 basechar 0
AnchorPoint: "Anchor0" 325 0 basechar 0
LayerCount: 2
Back
Fore
SplineSet
30 175 m 0
 29 268 84 341 172 341 c 2
 511 341 l 6
 511 242 l 5
 191 244 l 0
 150 244 130 214 130 175 c 0
 130 123.026315789 161 96 212 96 c 0
 277 96 308 140.194444444 308 207 c 2
 308 464 l 1
 240 464 l 1
 240 309 l 1
 139 309 l 1
 139 560 l 1
 518 560 l 1
 518 464 l 1
 415 464 l 1
 415 207 l 2
 415 100 375 1 212 1 c 0
 82 1 31 75 30 175 c 0
EndSplineSet
EndChar

StartChar: tml_Ja
Encoding: 18 2972 34
GlifName: tml_J_a
Width: 757
VWidth: 2
GlyphClass: 2
Flags: HMW
AnchorPoint: "Anchor1" 378 0 basechar 0
AnchorPoint: "Anchor0" 420 0 basechar 0
LayerCount: 2
Back
SplineSet
528 126 m 4
 400.607594937 126 421.215189873 -155 232 -155 c 4
 136.047393365 -155 41 -96.4811715481 41 34 c 4
 41 265.542440197 286.001241217 268.997754666 495 270 c 4
 572.796156584 270.373068411 603 327.888888889 603 380 c 4
 603 439 573.763157895 475 537 475 c 4
 485 475 455 422.020408163 454 298 c 5
 351 298 l 5
 355 407.756653992 371 581 537 581 c 4
 665.879581152 581 718 486.674418605 718 386 c 4
 718 241.81002331 621.190871369 168 487 168 c 4
 371 168 156 185.896639482 156 35 c 4
 156 -25.6031746032 185.291666667 -57 232 -57 c 4
 330.35443038 -57 311.620253165 224 528 224 c 4
 674.897727273 224 714 96.4413407821 714 47 c 4
 714 -126.638743455 614.638190955 -154 545 -154 c 4
 476.75 -154 442.083333333 -124 415 -94 c 5
 480 -19 l 5
 506.916666667 -47.2941176471 519.666666667 -56 548 -56 c 4
 573.652173913 -56 607 -24.9365079365 607 47 c 4
 607 97 574.755102041 126 528 126 c 4
349 298 m 261
 349.974193548 443.119047619 310.032258065 486 198 486 c 260
 172.916666667 486 155 463 155 429 c 260
 155 397 172 371 199 371 c 260
 220.5 371 242 389 242 429 c 260
 242 470 218.212765957 486 199 486 c 261
 295 492 l 261
 308 465 312 438 312 415 c 260
 312 335 260.738461538 279 193 278 c 260
 115.000711604 276.945955562 56 337 55 426 c 260
 54.0529411765 511 123.189591377 582.501716081 216 582 c 260
 415 580.924242424 454 441.393939394 455 298 c 260
 349 298 l 261
EndSplineSet
Fore
SplineSet
41 24 m 0
 41 232.698693287 258.504144198 267.580527017 376 270 c 0
 552.664963595 273.705563937 591 312.711111111 591 394 c 0
 591 444.305263158 569.152727987 475 529 475 c 4
 492.577177124 475 457.867469879 431.299319728 457 329 c 1
 344 329 l 5
 348.043010752 426.733840304 392.699902248 581 532 581 c 4
 646.607329843 581 707 497.63053189 707 389 c 4
 707 196.793005923 562.875043208 173.066583289 387 162 c 0
 304.435062471 156.8047674 151 124.860443294 151 19 c 0
 151 -14.3883597884 178.364583333 -46 222 -46 c 0
 331.651898734 -46 352.911373313 143 552 143 c 0
 660.5 143 706 60.7742488893 706 -3 c 0
 706 -143.445026178 587.824120603 -154 505 -154 c 0
 464 -154 l 1
 464 -57 l 1
 498 -56 l 0
 541.913043478 -56 599 -50.0158730159 599 -3 c 0
 599 26.1139240506 577.367346939 43 546 43 c 0
 406.556962025 43 429.113924051 -155 222 -155 c 0
 131.071090047 -155 41 -99.5774058577 41 24 c 0
342 329 m 261
 342.993548387 450.189842958 302.258064516 486 188 486 c 256
 162.916666667 486 145 463 145 429 c 256
 145 397 160.840909091 371 186 371 c 256
 209 371 232 389 232 429 c 256
 232 470 208.212765957 486 189 486 c 257
 275 492 l 257
 295.647058824 465 302 438 302 415 c 256
 302 335 250.739379712 278.935739179 183 278 c 256
 106.696348308 276.945955562 49.034733236 337.000623454 48 426 c 256
 47.0117647059 511 119.155124449 582.632864814 216 582 c 256
 384.692973597 581.041666666 441.054393306 456.741784038 442 329 c 256
 342 329 l 261
EndSplineSet
EndChar

StartChar: tml_Ta
Encoding: 22 2980 35
GlifName: tml_T_a
Width: 638
VWidth: 1057
GlyphClass: 2
Flags: HMW
AnchorPoint: "Anchor2" 194 0 mark 0
AnchorPoint: "Anchor3" 14 -7 basechar 0
AnchorPoint: "Anchor1" 478 1 basechar 0
AnchorPoint: "Anchor0" 309 1 basechar 0
LayerCount: 2
Back
SplineSet
44 1 m 261
 44 560 l 261
 483 560 l 261
 483 462 l 261
 380 462 l 261
 380 1 l 261
 272 1 l 261
 272 462 l 261
 151 462 l 261
 151 1 l 261
 44 1 l 261
94 -276 m 261
 95.193236715 -181.323144105 117.23920492 -57.9563318777 341 -57 c 260
 465.174439998 -56.3652855725 496 2.78658536585 496 128 c 260
 496 197.543307087 477.629032258 266 429 266 c 260
 379.412707968 266 380 199 380 199 c 261
 329 230 l 261
 330.768115942 275.88892154 352.8861155 360.206479351 451 358 c 260
 552.719680465 355.98206278 603 246.004484305 603 133 c 260
 603 -79.4943820225 511.082324076 -153.110283332 339 -155 c 260
 228.50877193 -155.923664122 205 -176.244274809 205 -276 c 261
 94 -276 l 261
EndSplineSet
Fore
SplineSet
30 175 m 4
 28.9846284028 267.999833444 84 341 172 341 c 6
 432 341 l 6
 438 242 l 6
 191 244 l 4
 150 244 130 214 130 175 c 4
 130 125 162.890243902 99 217 99 c 4
 278.614583333 99 308 142 308 207 c 6
 308 464 l 5
 239 464 l 5
 239 309 l 5
 139 309 l 5
 139 560 l 5
 518 560 l 5
 518 464 l 5
 415 464 l 5
 415 207 l 6
 415 100 373.577772264 0.485425531244 212 1 c 4
 80.8563943589 1.41765120448 31.0751948282 76.5208420011 30 175 c 4
431 341 m 5
 516.556737142 339.986955821 603 292.939600647 603 116 c 4
 603 -64.2176826119 527.293460152 -155.402129957 304 -158 c 4
 235.368842269 -158.634146341 212.690909091 -171.752377015 211 -236 c 5
 101 -236 l 5
 101.887387387 -160.673913043 126.099727399 -61.9756071671 298 -61 c 4
 462.298875292 -59.9892204595 496 -3.58064516129 496 117 c 4
 496 209 465 240 417 242 c 5
 431 341 l 5
EndSplineSet
EndChar

StartChar: tml_Na
Encoding: 23 2984 36
GlifName: tml_N_a
Width: 661
VWidth: 8
GlyphClass: 2
Flags: HMW
AnchorPoint: "Anchor3" 14 -7 basechar 0
AnchorPoint: "Anchor1" 426 0 basechar 0
AnchorPoint: "Anchor0" 226 0 basechar 0
AnchorPoint: "Anchor2" 194 0 mark 0
LayerCount: 2
Back
SplineSet
40 175 m 4
 38.9846284028 267.999833444 94 341 182 341 c 6
 442 341 l 6
 448 242 l 6
 201 244 l 4
 160 244 140 214 140 175 c 4
 140 125 172.890243902 99 227 99 c 4
 288.614583333 99 318 142 318 207 c 6
 318 464 l 5
 249 464 l 5
 249 309 l 5
 149 309 l 5
 149 560 l 5
 528 560 l 5
 528 464 l 5
 425 464 l 5
 425 207 l 6
 425 100 383.577772264 0.485425531244 222 1 c 4
 90.8563943589 1.41765120448 41.0751948282 76.5208420011 40 175 c 4
441 341 m 5
 526.556737142 339.986955821 613 292.939600647 613 116 c 4
 613 -64.2176826119 537.293460152 -155.402129957 314 -158 c 4
 245.368842269 -158.634146341 222.690909091 -171.752377015 221 -236 c 5
 111 -236 l 5
 111.887387387 -160.673913043 136.099727399 -61.9756071671 308 -61 c 4
 472.298875292 -59.9892204595 506 -3.58064516129 506 117 c 4
 506 209 475 240 427 242 c 5
 441 341 l 5
EndSplineSet
Fore
SplineSet
56 1 m 257
 56 560 l 257
 495 560 l 257
 495 462 l 257
 392 462 l 257
 392 1 l 257
 284 1 l 257
 284 462 l 257
 163 462 l 257
 163 1 l 257
 56 1 l 257
109 -236 m 257
 110.178743961 -158.615720524 131.956947371 -57.7816593886 353 -57 c 256
 477.174439998 -56.3652855725 508 2.78658536585 508 128 c 256
 508 197.543307087 489.629032258 266 441 266 c 256
 391.412707968 266 392 199 392 199 c 257
 341 230 l 257
 342.768115942 275.88892154 364.8861155 360.206479351 463 358 c 256
 564.719680465 355.98206278 615 246.004484305 615 133 c 256
 615 -79.4943820225 523.082324076 -153.110283332 351 -155 c 256
 242.98245614 -155.618320611 220 -169.221374046 220 -236 c 257
 109 -236 l 257
EndSplineSet
PickledDataWithLists: "(dp1
S'com.fontlab.hintData'
p2
(dp3
S'vhints'
p4
(lp5
(dp6
S'position'
p7
I7
sS'width'
p8
I36
sa(dp9
g7
I313
sg8
I36
sasS'hhints'
p10
(lp11
(dp12
g7
I0
sg8
I21
sa(dp13
g7
I485
sg8
I35
sass."
EndChar

StartChar: tml_Ssa
Encoding: 35 2999 37
GlifName: tml_S_sa
Width: 1057
VWidth: 5
GlyphClass: 2
Flags: HMW
AnchorPoint: "Anchor1" 575 -4 basechar 0
AnchorPoint: "Anchor0" 644 -4 basechar 0
AnchorPoint: "tml_virama" 465 0 basechar 0
LayerCount: 2
Back
Fore
SplineSet
40 245 m 256
 40 448 133 570 289 570 c 256
 424.051282051 570 518 451.691803279 518 279 c 256
 518 144.436893204 466 59 466 59 c 257
 388 81 l 257
 406 121 419 172 419 263 c 260
 419 389 368 473 289 473 c 256
 189 473 142 376 142 255 c 256
 142 158 159 74 207 74 c 256
 253 74 262 139 262 178 c 256
 262 245.559139785 234 281 208 281 c 256
 165.142857143 281 145.142857143 235.032258065 148 167 c 257
 64 216 l 257
 64 271.619047619 124.33557047 362 209 362 c 256
 290.092715232 362 364 296.688311688 364 174 c 256
 364 53 305 -24 207 -24 c 256
 102 -24 40 90 40 245 c 256
388 0 m 257
 388 81 l 257
 484 99 l 257
 900 99 l 257
 900 473 l 257
 1007 473 l 257
 1007 0 l 257
 388 0 l 257
537 410 m 256
 536 514 603 570 678 570 c 256
 801 570 821 480 820 415 c 257
 713 394 l 257
 712 446 706 473 680 472 c 256
 659 472 640.104118849 449.002295252 640 406 c 256
 639.883755634 357.989725191 652 256 770 256 c 256
 876.166666667 256 898.916666667 308.426229508 900 379 c 256
 955 376 l 256
 955 271.381625442 916.232385558 163 766 163 c 256
 648 163 538.636076885 239.848003996 537 410 c 256
713 -146 m 257
 713 398 l 257
 820 418 l 257
 820 -146 l 257
 713 -146 l 257
EndSplineSet
EndChar

StartChar: tml_Sa
Encoding: 36 3000 38
GlifName: tml_S_a
Width: 1024
VWidth: 5
GlyphClass: 2
Flags: HMW
AnchorPoint: "Anchor2" 1120 0 basechar 0
AnchorPoint: "Anchor0" 538 0 basechar 0
AnchorPoint: "tml_virama" 465 0 basechar 0
LayerCount: 2
Back
Fore
SplineSet
810 -23 m 0
 665 -23 654 73.7666015625 654 180 c 0
 654 385 l 0
 652.903320312 445.045898438 625.041015625 477 592 477 c 256
 545.69140625 477 523 424.169921875 523 358 c 257
 422 327 l 256
 422 481.46875 484.557617188 574.125 592 574 c 256
 715.595703125 573.856445312 756 487.442382812 756 382 c 0
 756 171 l 0
 756 116.302734375 758 75 810 75 c 0
 871 75 878 161 878 256 c 0
 878 445 789 530 789 530 c 0
 876 584 l 0
 931 525 984 401 984 255 c 0
 984 151 966 -23 810 -23 c 0
40 249 m 256
 40 452 133 574 289 574 c 256
 427 574 523 483.337890625 523 351 c 256
 521 0 l 257
 418 0 l 257
 419 349 l 256
 419 425.799804688 368 477 289 477 c 256
 189 477 142 380 142 259 c 256
 142 162 159 78 207 78 c 256
 253 78 262 143 262 182 c 256
 262 243 234 275 208 275 c 256
 168 275 140 225 152 151 c 257
 64 220 l 257
 86 270 116 376 213 376 c 256
 282 376 364 319 364 178 c 256
 364 57 305 -20 207 -20 c 256
 102 -20 40 94 40 249 c 256
EndSplineSet
EndChar

StartChar: tml_MatraI
Encoding: 39 3007 40
GlifName: tml_M_atraI_
Width: 269
VWidth: -4
GlyphClass: 2
Flags: HMW
LayerCount: 2
Back
Fore
SplineSet
-236.0390625 550 m 4
 -191.013277128 702.777959789 -95.8074355099 745.243978017 -14 746 c 256
 137.08056872 747 216.177210121 658.996861993 217 479 c 2
 219 0 l 256
 111 0 l 256
 110 479 l 2
 109.742674902 582.999546726 78 638 -18 638 c 256
 -74.7372317717 638 -136.433034521 607.845267428 -160.697265625 503 c 4
 -236.0390625 550 l 4
EndSplineSet
Substitution2: "SingleSubstitutionlookup24 subtable" tml_MatraI.stylalt1
Substitution2: "SingleSubstitutionlookup23 subtable" tml_MatraI.alt7
Substitution2: "Single Substitution lookup 16 subtable" tml_MatraI.alt6
Substitution2: "Single Substitution lookup 14 subtable" tml_MatraI.alt5
Substitution2: "Single Substitution lookup 12 subtable" tml_MatraI.alt4
Substitution2: "Single Substitution lookup 10 subtable" tml_MatraI.alt3
Substitution2: "Single Substitution lookup 8 subtable" tml_MatraI.alt2
Substitution2: "SingleSubstitutionlookup17 subtable" tml_MatraI.alt1
EndChar

StartChar: tml_MatraIi
Encoding: 40 3008 41
GlifName: tml_M_atraI_i
Width: 419
VWidth: 8
GlyphClass: 4
Flags: HMW
AnchorPoint: "Anchor1" 205 0 mark 0
LayerCount: 2
Back
Fore
SplineSet
18 666 m 256
 18.3134765625 833.05859375 138.24609375 902.637695312 251 902 c 0
 353.021484375 901.422851562 401 829.815429688 401 738 c 256
 401 615.784179688 331 590.178710938 277 590.178710938 c 256
 208.999023438 590.178710938 152.670898438 628.89453125 152.196289062 728 c 256
 151.864257812 797.399414062 203 855 240 881 c 257
 276 806 l 257
 250 806 234.016601562 767.833007812 234 736 c 256
 233.97265625 683.752929688 252.642578125 663.717773438 278 663.717773438 c 256
 304 663.717773438 317 693.184570312 317 738 c 256
 317 764 310.666992188 805.966796875 275 806 c 256
 178.752929688 806.08984375 121.672851562 762.704101562 122 665 c 0
 122.216796875 600.278320312 153.1953125 561.1953125 197 560 c 256
 197 467 l 0
 130.444335938 467 17.7236328125 518.884765625 18 666 c 256
EndSplineSet
Substitution2: "SingleSubstitutionlookup24 subtable" tml_MatraIi.stylalt1
Substitution2: "SingleSubstitutionlookup17 subtable" tml_MatraIi.alt1
EndChar

StartChar: tml_MatraU
Encoding: 41 3009 42
GlifName: tml_M_atraU_
Width: 388
VWidth: -4
GlyphClass: 2
Flags: HMW
LayerCount: 2
Back
SplineSet
172.8515625 532.2265625 m 6
 253.90625 532.2265625 343.75 509.765625 343.75 366.2109375 c 4
 343.75 262.6953125 291.015625 207.03125 201.171875 207.03125 c 4
 105.46875 207.03125 56.640625 286.1328125 56.640625 366.2109375 c 4
 56.640625 391.76953125 60.1591796875 416.494140625 68.05078125 438.4765625 c 5
 -149.4140625 438.4765625 l 5
 -149.4140625 532.2265625 l 5
 172.8515625 532.2265625 l 6
199.725585938 438.473632812 m 4
 169.811523438 438.071289062 159.1796875 399.241210938 159.1796875 366.2109375 c 4
 159.1796875 337.890625 169.921875 299.8046875 201.171875 299.8046875 c 4
 235.3515625 299.8046875 241.2109375 340.8203125 241.2109375 366.2109375 c 4
 241.2109375 435.526367188 209.723632812 438.368164062 199.725585938 438.473632812 c 4
EndSplineSet
Fore
SplineSet
187 560 m 258
 -161 560 l 0
 -161 462 l 260
 203 462 l 260
 211 462 248 465 248 388 c 256
 248 358 242 307 208 307 c 256
 174 307 162 353 162 388 c 256
 162 423 173 462 205 462 c 261
 202 552 l 257
 92 552 53 475 53 388 c 256
 53 299 102 211 200 211 c 256
 300 211 358 272 358 388 c 256
 358 537.132947977 268 560 187 560 c 258
EndSplineSet
Substitution2: "SingleSubstitutionlookup23 subtable" tml_MatraU.alt1
EndChar

StartChar: tml_MatraUu
Encoding: 42 3010 43
GlifName: tml_M_atraU_u
Width: 549
VWidth: -6
GlyphClass: 2
Flags: HMW
LayerCount: 2
Back
SplineSet
237.080078125 524.2734375 m 1
 295.745117188 509.231445312 343.750976562 468.404296875 343.750976562 366.209960938 c 0
 343.750976562 262.694335938 291.016601562 207.030273438 201.172851562 207.030273438 c 0
 105.469726562 207.030273438 56.6416015625 286.131835938 56.6416015625 366.209960938 c 0
 56.6416015625 390.588867188 59.173828125 415.006835938 64.6025390625 438.475585938 c 1
 -149.413085938 438.475585938 l 1
 -149.413085938 532.225585938 l 1
 108.125976562 532.225585938 l 1
 145.495117188 579.529296875 205.099609375 611.327148438 292.969726562 611.327148438 c 0
 352.540039062 611.327148438 494.141601562 573.241210938 498.047851562 365.233398438 c 0
 499.024414062 287.108398438 447.266601562 188.475585938 447.266601562 188.475585938 c 1
 381.836914062 217.772460938 l 1
 381.836914062 217.772460938 426.758789062 294.920898438 425.782226562 366.209960938 c 0
 424.805664062 462.889648438 361.329101562 535.155273438 299.805664062 535.155273438 c 0
 275.306640625 535.155273438 254.528320312 531.381835938 237.080078125 524.2734375 c 1
167.370117188 438.475585938 m 1
 161.734375 417.137695312 159.181640625 392.849609375 159.181640625 366.209960938 c 0
 159.181640625 337.889648438 169.923828125 299.803710938 201.173828125 299.803710938 c 0
 235.353515625 299.803710938 241.212890625 340.819335938 241.212890625 366.209960938 c 0
 241.212890625 439.452148438 198.244140625 438.475585938 188.478515625 438.475585938 c 2
 167.370117188 438.475585938 l 1
EndSplineSet
Fore
SplineSet
151 560 m 258
 -146 560 l 0
 -146 462 l 260
 168 462 l 260
 194.84765625 462 262.322265625 462 244 385 c 256
 237.981445312 359.706054688 238 316 202 316 c 256
 169 316 158 356 158 385 c 256
 158 478 208 562 287 562 c 256
 378 562 420 468 420 398 c 0
 420 311 374 230 374 230 c 1
 459 200 l 1
 459 200 513 287 513 388 c 0
 513 493 461 645 283 645 c 256
 161 645 49 559 49 385 c 256
 49 301 100 218 202 218 c 256
 298 218 354 276 354 385 c 256
 354 536 247 560 151 560 c 258
EndSplineSet
EndChar

StartChar: tml_MatraE
Encoding: 43 3014 44
GlifName: tml_M_atraE_
Width: 611
VWidth: -4
GlyphClass: 2
Flags: HMW
LayerCount: 2
Back
SplineSet
51 241 m 260
 51 444 144 566 300 566 c 260
 437.41025641 566 534.468779118 447.685557033 533 275 c 260
 532.006693222 158.216113157 503.915592521 97.2904296689 485 55 c 261
 400 80 l 261
 417.419354839 119.340659341 430 169.5 430 259 c 260
 430 385 378.215384615 469 298 469 c 260
 199.360544218 469 153 372 153 251 c 260
 153 154 170 70 218 70 c 260
 264 70 273 135 273 174 c 260
 273 241.559139785 245 277 219 277 c 260
 176.142857143 277 156.142857143 231.032258065 159 163 c 261
 103 192 l 261
 103 265.238095238 145.685637584 358 230 358 c 260
 302.721854305 358 369 292.688311688 369 170 c 260
 369 49 312.25477707 -28 218 -28 c 260
 113 -28 51 86 51 241 c 260
EndSplineSet
Fore
SplineSet
48 304 m 4
 48 626.421759617 197.000728446 804.85166992 336 806 c 256
 473.999459955 807.071938539 546.332105671 718.997521728 547 539 c 2
 549 0 l 256
 441 0 l 256
 440 539 l 2
 439.807050757 642.999642024 413 698 332 698 c 256
 236.661224904 698 149 523 149 320 c 0
 149 270.388148241 163 218.695647325 163 170 c 0
 163 139.309713545 174.131960055 69 218 69 c 256
 264 69 272 134 272 173 c 256
 272 241.215053763 244.490566038 277 218 277 c 256
 181.001168907 277 163 238.011338976 163 171 c 257
 104 192 l 257
 104 274 147.275167785 357 228 357 c 256
 293.32 357 370 303.842639594 370 170 c 256
 370 49 313.487179487 -29 218 -29 c 260
 89.7599963645 -29 48 120.416026305 48 304 c 4
EndSplineSet
EndChar

StartChar: tml_MatraEe
Encoding: 44 3015 45
GlifName: tml_M_atraE_e
Width: 488
VWidth: -4
GlyphClass: 2
Flags: HMW
LayerCount: 2
Back
Fore
SplineSet
294 69 m 256
 337 69 344 133 344 168 c 256
 344 238 322 271 294 271 c 256
 268 271 247 227 247 168 c 0
 247 141 256 70 293 70 c 257
 254 22 l 257
 254 22 171 78.0871152843 171 180 c 0
 171 310.812206573 230.957746479 367 300 367 c 256
 369 367 448 309 448 168 c 256
 448 53.1421319797 389 -19 290 -19 c 256
 89.0769230769 -19 20 175.103194103 20 378 c 256
 20 623 119.706563707 807 289 807 c 256
 387 807 448 728 448 607 c 256
 448 466 367.629139073 411 300 411 c 260
 219.585084034 411 165 484.908629442 165 571 c 0
 165 699.15732851 239 741 239 741 c 257
 295 709 l 261
 295 709 244 711 244 607 c 0
 244 544 274 511 296 511 c 256
 322 511 348 543 348 604 c 256
 348 643 340.444444444 708 297 708 c 260
 193.472150445 708 122 580.418181818 122 379 c 256
 122 215.601941748 165.185185185 69 294 69 c 256
EndSplineSet
EndChar

StartChar: tml_TtI
Encoding: 77 -1 71
GlifName: tml_T_tI_
Width: 657
VWidth: 1
GlyphClass: 3
Flags: HMW
LayerCount: 2
Back
Fore
SplineSet
408 45 m 4
 274.079138942 46.8026315789 219.036207573 199.764609889 219 319 c 0
 218.948858287 471.298823847 278.255450037 572.4453125 396 573 c 256
 481.908524916 573.404709899 561.223532936 525.136780557 562 374 c 2
 564 -146 l 256
 456 -146 l 256
 455 393 l 2
 454.912478391 443.703427554 435.333333333 475 396 475 c 256
 348.833234262 475 316.743956636 416.766601562 317 319 c 0
 317.296875 188.958007812 371 98 444.302734375 98 c 0
 408 45 l 4
EndSplineSet
Refer: 7 2975 N 1 0 0 1 0 0 2
LCarets2: 1 0
Ligature2: "abvsAboveBaseSubstitutionslooku subtable" tml_Tta tml_MatraI
EndChar

StartChar: tml_MatraI.alt1
Encoding: 114 -1 110
GlifName: tml_M_atraI_.alt1
Width: 269
VWidth: -4
GlyphClass: 2
Flags: HMW
LayerCount: 2
Back
Fore
SplineSet
-236.0390625 550 m 4
 -191.013671875 702.778320312 -95.8076171875 745.244140625 -14 746 c 260
 137.081054688 747 216.176757812 658.997070312 217 479 c 6
 219 0 l 256
 111 0 l 256
 110 479 l 6
 109.7421875 583 78 638 -18 638 c 260
 -74.7373046875 638 -136.432617188 607.845703125 -160.697265625 503 c 4
 -236.0390625 550 l 4
EndSplineSet
EndChar

StartChar: tml_MatraI.alt2
Encoding: 115 -1 111
GlifName: tml_M_atraI_.alt2
Width: 219
VWidth: -4
GlyphClass: 2
Flags: HMW
LayerCount: 2
Back
Fore
SplineSet
-227.0390625 490 m 0
 -251.709044869 523.343992134 -262.706298789 554.028322867 -262.71875 582 c 0
 -262.751190633 695.801674402 -157.570468258 755.56557657 -74 756 c 256
 77.0825913855 756.712703713 156.28242423 671.278482168 157 496 c 6
 159 0 l 256
 51 0 l 256
 50 496 l 6
 49.8004111934 595.421502922 18 648 -78 648 c 256
 -124.604495533 648 -161.30405142 612.331960879 -162.060546875 566 c 0
 -162.713721452 542.972800113 -150.948393102 518.178849577 -121.697265625 493 c 0
 -227.0390625 490 l 0
EndSplineSet
EndChar

StartChar: tml_MatraI.alt3
Encoding: 116 -1 112
GlifName: tml_M_atraI_.alt3
Width: 250
VWidth: -4
GlyphClass: 2
Flags: HMW
LayerCount: 2
Back
Fore
SplineSet
-235 530 m 0
 -246.379683822 555.493873148 -251.323780236 578.426485151 -251.248046875 599 c 0
 -250.881733247 715.914165342 -134.370285994 755.491550415 -74 756 c 256
 87.3169499847 757.068801837 187.217308502 672.256167938 188 499 c 2
 190 0 l 256
 82 0 l 256
 81 499 l 2
 80.7838313551 596.459268818 44 648 -67 648 c 256
 -94.9564849706 648 -146.977788106 633.868393973 -148 583 c 0
 -148.07749252 579.567500297 -149.160260636 555.648114688 -149.697265625 552 c 0
 -235 530 l 0
EndSplineSet
EndChar

StartChar: tml_MatraI.alt4
Encoding: 117 -1 113
GlifName: tml_M_atraI_.alt4
Width: 269
VWidth: -4
GlyphClass: 2
Flags: HMW
LayerCount: 2
Back
Fore
SplineSet
-236.0390625 560 m 4
 -191.013671875 712.778320312 -95.8076171875 755.244140625 -14 756 c 260
 137.081054688 757 216.176757812 668.997070312 217 489 c 6
 219 0 l 256
 111 0 l 256
 110 489 l 6
 109.7421875 593 78 648 -18 648 c 260
 -74.7373046875 648 -136.432617188 617.845703125 -160.697265625 513 c 4
 -236.0390625 560 l 4
EndSplineSet
Substitution2: "SingleSubstitutionlookup24 subtable" tml_MatraI.stylalt1
EndChar

StartChar: tml_MatraI.alt5
Encoding: 118 -1 114
GlifName: tml_M_atraI_.alt5
Width: 199
VWidth: -4
GlyphClass: 2
Flags: HMW
LayerCount: 2
Back
Fore
SplineSet
-170.0390625 492 m 0
 -243.552579732 497.834318878 -272.627549436 554.239149166 -272.270507812 590 c 0
 -270.99802894 717.449922344 -149.837056715 757.687229789 -84 758 c 256
 67.0832805255 758.717746994 146.243972267 667.738849996 147 481 c 2
 149 1 l 256
 41 1 l 256
 40 481 l 2
 39.7762328499 591.540972164 8 650 -88 650 c 256
 -148.247532724 650 -175.265861763 614.972493149 -174.857421875 586 c 0
 -174.516444039 561.812896133 -150.88369939 559.939302092 -139.697265625 560 c 0
 -170.0390625 492 l 0
EndSplineSet
Substitution2: "SingleSubstitutionlookup24 subtable" tml_MatraI.stylalt1
EndChar

StartChar: tml_MatraI.alt6
Encoding: 119 -1 115
GlifName: tml_M_atraI_.alt6
Width: 269
VWidth: -4
GlyphClass: 2
Flags: HMW
LayerCount: 2
Back
Fore
SplineSet
-286.0390625 496 m 4
 -328.075383665 530.287056681 -330.934882023 572.276128875 -331 600 c 4
 -331.228073681 715.890207672 -185.864278179 757.385725325 -114 757 c 260
 69.7827475619 756.013561927 166.130243841 666.739026495 167 480 c 6
 169 0 l 256
 61 0 l 256
 60 480 l 6
 59.7246296228 590.541025981 15.5 649 -118 649 c 260
 -179.988487335 649 -231.416117473 630.123000726 -231 600 c 4
 -230.415107768 564.026314287 -217.058672845 557.435541612 -190.697265625 557 c 4
 -286.0390625 496 l 4
EndSplineSet
EndChar

StartChar: tml_MatraIi.alt1
Encoding: 121 -1 117
GlifName: tml_M_atraI_i.alt1
Width: 533
VWidth: -4
GlyphClass: 4
Flags: HMW
AnchorPoint: "Anchor2" 2 0 mark 0
LayerCount: 2
Back
Fore
SplineSet
96.6865234375 893.837890625 m 256
 -17.9462890625 779.205078125 -0.89453125 527.556640625 -0.89453125 527.556640625 c 0
 130.626953125 523.313476562 l 256
 99.5341796875 631.208007812 97.853515625 756.383789062 175.881835938 837.26953125 c 256
 189.03515625 850.514648438 249.142578125 912.500976562 325.08203125 836.5625 c 256
 356.770507812 804.873046875 406.399414062 746.759765625 382.357421875 722.717773438 c 256
 358.315429688 698.67578125 301.241210938 738.780273438 264.270507812 775.750976562 c 256
 242.452148438 797.568359375 233.716796875 839.94921875 282.655273438 888.887695312 c 257
 197.095703125 970.205078125 l 257
 93.2119140625 866.322265625 117.799804688 768.072265625 187.196289062 698.67578125 c 256
 264.350585938 621.521484375 375.286132812 579.881835938 444.583007812 649.178710938 c 256
 515.293945312 719.889648438 503.424804688 813.782226562 402.86328125 914.34375 c 256
 279.017578125 1038.18945312 191.640625 988.791992188 96.6865234375 893.837890625 c 256
EndSplineSet
EndChar

StartChar: tml_MatraIi.stylalt1
Encoding: 124 -1 120
GlifName: tml_M_atraI_i.stylalt1
Width: 533
VWidth: -4
GlyphClass: 4
Flags: HMW
AnchorPoint: "Anchor3" 0 0 mark 0
AnchorPoint: "Anchor2" 2 0 mark 0
LayerCount: 2
Back
Fore
SplineSet
96.6865234375 893.837890625 m 256
 -17.9462890625 779.205078125 -0.89453125 527.556640625 -0.89453125 527.556640625 c 0
 130.626953125 523.313476562 l 256
 99.5341796875 631.208007812 97.853515625 756.383789062 175.881835938 837.26953125 c 256
 189.03515625 850.514648438 249.142578125 912.500976562 325.08203125 836.5625 c 256
 356.770507812 804.873046875 406.399414062 746.759765625 382.357421875 722.717773438 c 256
 358.315429688 698.67578125 301.242038326 738.781100845 264.270507812 775.750976562 c 256
 242.452148438 797.568359375 105.62109375 1078.74414062 154.559570312 1127.68261719 c 261
 69 1209 l 261
 -34.8837890625 1105.1171875 117.799804687 768.072265624 187.196289062 698.67578125 c 256
 264.350585938 621.521484375 375.286132812 579.881835938 444.583007812 649.178710938 c 256
 515.293945312 719.889648438 503.424804688 813.782226562 402.86328125 914.34375 c 256
 279.017578125 1038.18945312 191.640625 988.791992188 96.6865234375 893.837890625 c 256
EndSplineSet
EndChar

StartChar: tml_TtIi
Encoding: 126 -1 122
GlifName: tml_T_tI_i
Width: 657
VWidth: 1
GlyphClass: 3
Flags: HMW
LayerCount: 2
Back
Fore
SplineSet
219 205 m 256
 219.313476562 372.05859375 339.24609375 441.637695312 452 441 c 0
 554.021484375 440.422851562 602 368.815429688 602 277 c 256
 602 154.784179688 532 129.178710938 478 129.178710938 c 256
 409.999023438 129.178710938 353.670898438 167.89453125 353.196289062 267 c 256
 352.864257812 336.399414062 404 394 441 420 c 257
 477 345 l 257
 451 345 435.016601562 306.833007812 435 275 c 256
 434.97265625 222.752929688 453.642578125 202.717773438 479 202.717773438 c 256
 505 202.717773438 518 232.184570312 518 277 c 256
 518 303 511.666992188 344.966796875 476 345 c 256
 379.752929688 345.08984375 322.672851562 301.704101562 323 204 c 0
 323.216796875 139.278320312 354.1953125 100.1953125 398 99 c 256
 398 6 l 0
 331.444335938 6 218.723632812 57.884765625 219 205 c 256
EndSplineSet
Refer: 7 2975 N 1 0 0 1 0 0 2
EndChar
